<!-- Source: https://www.onlinewebfonts.com/icon/426131; License: CC BY 3.0 --><svg xmlns="http://www.w3.org/2000/svg" viewBox="0 0 512 512" width="512" height="512"><g class="" transform="translate(0,0)" style="touch-action: none;"><path d="M42.584 469.369c-.518-.896-1.178-2.263-1.933-4.055s-2.169-5.704-4.149-11.644-3.771-12.021-5.327-18.197-2.97-13.907-4.243-23.147S25 393.94 25 384.936c0-50.632 18.386-94.333 55.204-131.152l41.062-41.061 54.638 54.827 27.485-27.296 13.765 13.577L395.166 75.82l-20.554-20.554c-1.933-1.933-2.923-4.243-2.923-6.883s.99-4.95 2.923-6.883l13.766-13.577c1.791-1.933 4.054-2.923 6.788-2.923s4.95.99 6.789 2.923l82.123 82.123c1.932 1.792 2.922 4.055 2.922 6.789s-.99 5.044-2.922 6.977L470.5 137.388c-1.932 1.933-4.242 2.923-6.882 2.923s-4.95-.99-6.883-2.923l-20.555-20.554-178.011 178.012 13.766 13.765-27.485 27.485 54.827 54.638-41.061 41.25C221.397 468.661 177.649 487 127.017 487a211.42 211.42 0 0 1-27.201-1.744c-9.099-1.179-16.971-2.593-23.524-4.337-6.6-1.745-12.54-3.489-17.82-5.233s-9.24-3.206-11.833-4.337z" fill="#fff" fill-opacity="1"></path></g></svg>
